<?xml version="1.0" encoding="UTF-8" standalone="no"?>
<!-- Created with Inkscape (http://www.inkscape.org/) -->

<svg
   xmlns:dc="http://purl.org/dc/elements/1.1/"
   xmlns:cc="http://creativecommons.org/ns#"
   xmlns:rdf="http://www.w3.org/1999/02/22-rdf-syntax-ns#"
   xmlns:svg="http://www.w3.org/2000/svg"
   xmlns="http://www.w3.org/2000/svg"
   xmlns:sodipodi="http://sodipodi.sourceforge.net/DTD/sodipodi-0.dtd"
   xmlns:inkscape="http://www.inkscape.org/namespaces/inkscape"
   width="210mm"
   height="297mm"
   viewBox="0 0 210 297"
   version="1.1"
   id="svg8"
   inkscape:version="0.92.5 (2060ec1f9f, 2020-04-08)"
   sodipodi:docname="favicon.svg">
  <defs
     id="defs2" />
  <sodipodi:namedview
     id="base"
     pagecolor="#ffffff"
     bordercolor="#666666"
     borderopacity="1.0"
     inkscape:pageopacity="0.0"
     inkscape:pageshadow="2"
     inkscape:zoom="0.35"
     inkscape:cx="525.35819"
     inkscape:cy="526.30049"
     inkscape:document-units="mm"
     inkscape:current-layer="layer1"
     showgrid="false"
     inkscape:window-width="1366"
     inkscape:window-height="742"
     inkscape:window-x="0"
     inkscape:window-y="0"
     inkscape:window-maximized="1" />
  <metadata
     id="metadata5">
    <rdf:RDF>
      <cc:Work
         rdf:about="">
        <dc:format>image/svg+xml</dc:format>
        <dc:type
           rdf:resource="http://purl.org/dc/dcmitype/StillImage" />
        <dc:title></dc:title>
      </cc:Work>
    </rdf:RDF>
  </metadata>
  <g
     inkscape:label="Layer 1"
     inkscape:groupmode="layer"
     id="layer1">
    <rect
       style="fill:#000000;stroke-width:0.26458332"
       id="rect169"
       width="212.42261"
       height="298.6012"
       x="-0.75595242"
       y="-0.84523809" />
    <text
       xml:space="preserve"
       style="font-style:normal;font-variant:normal;font-weight:normal;font-stretch:normal;font-size:141.9316864px;line-height:1.25;font-family:'‘DragonForcE’';-inkscape-font-specification:'‘DragonForcE’';letter-spacing:0px;word-spacing:0px;fill:#ffffff;fill-opacity:1;stroke:none;stroke-width:3.5482924"
       x="66.250793"
       y="113.93922"
       id="text12"><tspan
         sodipodi:role="line"
         id="tspan10"
         x="66.250793"
         y="113.93922"
         style="fill:#ffffff;stroke-width:3.5482924">F</tspan></text>
    <text
       xml:space="preserve"
       style="font-style:normal;font-variant:normal;font-weight:normal;font-stretch:normal;font-size:164.28741455px;line-height:1.25;font-family:'‘DragonForcE’';-inkscape-font-specification:'‘DragonForcE’';letter-spacing:0px;word-spacing:0px;fill:#ffffff;fill-opacity:1;stroke:none;stroke-width:4.10718584"
       x="125.23948"
       y="272.03763"
       id="text16"><tspan
         sodipodi:role="line"
         id="tspan14"
         x="125.23948"
         y="272.03763"
         style="fill:#ffffff;stroke-width:4.10718584">D</tspan></text>
    <path
       id="rect104"
       style="fill:#ffffff;stroke-width:0.28426525"
       d="M 145.1031,402.53164 -84.435851,126.98709 c -0.11063,-0.0338 -0.2221,-0.0647 -0.33187,-0.10125 -0.23145,-0.0777 -0.42404,-0.24182 -0.63156,-0.37038 -0.14172,-0.0878 -0.56829,-0.34488 -0.41549,-0.27825 0.2725,0.11888 0.50327,0.3217 0.77761,0.43627 0.1126,0.047 0.30035,0.11205 0.48261,0.17155 l -0.17079,-0.20518 c -0.23005,-0.11423 -0.46195,-0.22482 -0.69732,-0.32863 -0.0978,-0.0179 -0.19558,-0.0366 -0.29072,-0.0651 -0.24172,-0.072 -0.38762,-0.13575 -0.51617,-0.21005 -0.31514,-0.0374 -0.60918,-0.10515 -0.86386,-0.21222 -0.22849,0.006 -0.42869,-0.01 -0.62043,-0.0405 -0.26707,0.76566 -0.65595,1.46288 -1.21166,2.09406 -0.0781,0.18485 -0.3098,0.70004 -0.41436,0.83162 -0.0599,0.24677 -0.11888,0.4939 -0.19701,0.73526 -0.2715,0.82856 -0.72896,1.58907 -1.15471,2.35273 -0.1464,0.6047 -0.37364,1.2001 -0.58686,1.75696 L 135.83074,406.18288 Z M -85.422671,126.31126 c 0.006,10e-4 0.0109,0.002 0.0161,0.003 -0.16992,-0.0722 -0.33959,-0.14514 -0.50783,-0.22117 0.16438,0.0717 0.32756,0.14553 0.49159,0.21785 z m -0.4916,-0.21786 c -0.0297,-0.0131 -0.059,-0.0274 -0.0886,-0.0408 -0.003,-4.9e-4 -0.003,-5.5e-4 -0.005,-7.9e-4 0.0312,0.0136 0.062,0.0279 0.0932,0.0415 z"
       inkscape:connector-curvature="0" />
    <text
       xml:space="preserve"
       style="font-style:normal;font-variant:normal;font-weight:normal;font-stretch:normal;font-size:1.89782965px;line-height:1.25;font-family:'‘DragonForcE’';-inkscape-font-specification:'‘DragonForcE’';letter-spacing:0px;word-spacing:0px;fill:#ffffff;fill-opacity:1;stroke:none;stroke-width:0.04744574"
       x="0.22720207"
       y="297.18204"
       id="text259"><tspan
         sodipodi:role="line"
         id="tspan257"
         x="0.22720207"
         y="297.18204"
         style="fill:#ffffff;stroke-width:0.04744574">Felixdeveloper</tspan></text>
    <path
       inkscape:connector-curvature="0"
       d="M 50.023551,-120.01523 279.5625,155.52933 c 0.11062,0.0338 0.22209,0.0647 0.33186,0.10124 0.23145,0.0776 0.42404,0.24182 0.63157,0.37038 0.14171,0.0878 0.56828,0.34489 0.41548,0.27825 -0.27249,-0.11888 -0.50327,-0.32169 -0.7776,-0.43627 -0.1126,-0.047 -0.30035,-0.11205 -0.48261,-0.17155 l 0.17078,0.20519 c 0.23005,0.11424 0.46195,0.22482 0.69733,0.32862 0.0978,0.0179 0.19558,0.0366 0.29071,0.0651 0.24172,0.072 0.38763,0.13575 0.51618,0.21005 0.31513,0.0374 0.60918,0.10515 0.86386,0.21222 0.22848,-0.006 0.42869,0.01 0.62043,0.0405 0.26707,-0.76566 0.65595,-1.46288 1.21165,-2.09405 0.0781,-0.18485 0.30981,-0.70004 0.41437,-0.83163 0.0599,-0.24676 0.11888,-0.49389 0.19701,-0.73525 0.27149,-0.82856 0.72896,-1.58908 1.1547,-2.35273 0.1464,-0.60471 0.37364,-1.2001 0.58686,-1.75696 L 59.29593,-123.66654 Z M 280.54932,156.20515 c -0.006,-0.001 -0.0109,-0.002 -0.0161,-0.003 0.16992,0.0722 0.33958,0.14514 0.50783,0.22118 -0.16438,-0.0717 -0.32757,-0.14554 -0.4916,-0.21786 z m 0.49159,0.21786 c 0.0297,0.0131 0.059,0.0274 0.0886,0.0408 0.003,5e-4 0.003,5.6e-4 0.005,8e-4 -0.0313,-0.0136 -0.062,-0.0279 -0.0932,-0.0415 z"
       style="fill:#ffffff;stroke-width:0.28426525"
       id="path273" />
  </g>
</svg>
